<?xml version="1.0" encoding="UTF-8"?>
<svg xmlns="http://www.w3.org/2000/svg" xmlns:xlink="http://www.w3.org/1999/xlink" viewBox="0 0 727.12 726.31">
  <defs>
    <style>
      .cls-1 {
        fill: url(#linear-gradient-2);
      }

      .cls-2, .cls-3, .cls-4 {
        fill: #fff;
      }

      .cls-3, .cls-5, .cls-6, .cls-4, .cls-7 {
        mix-blend-mode: soft-light;
      }

      .cls-3, .cls-6 {
        opacity: .5;
      }

      .cls-8 {
        fill: url(#linear-gradient-6);
      }

      .cls-9 {
        isolation: isolate;
      }

      .cls-10 {
        clip-path: url(#clippath-1);
      }

      .cls-11 {
        fill: url(#linear-gradient-10);
      }

      .cls-11, .cls-12 {
        mix-blend-mode: multiply;
        opacity: .1;
      }

      .cls-13 {
        fill: #d8dee8;
      }

      .cls-4 {
        opacity: .4;
      }

      .cls-7 {
        opacity: .8;
      }

      .cls-14 {
        fill: url(#linear-gradient-5);
      }

      .cls-12 {
        fill: url(#linear-gradient-11);
      }

      .cls-15 {
        clip-path: url(#clippath);
      }

      .cls-16 {
        fill: url(#linear-gradient-7);
      }

      .cls-17 {
        fill: #f4f7fa;
      }

      .cls-18 {
        fill: url(#linear-gradient-9);
      }

      .cls-19 {
        fill: url(#linear-gradient-3);
      }

      .cls-20 {
        fill: url(#linear-gradient);
      }

      .cls-21 {
        fill: url(#linear-gradient-4);
      }

      .cls-22 {
        fill: url(#linear-gradient-8);
      }

      .cls-23 {
        fill: url(#linear-gradient-12);
      }

      .cls-24 {
        fill: url(#linear-gradient-13);
      }
    </style>
    <linearGradient id="linear-gradient" x1="486.37" y1="523.88" x2="675.83" y2="12.19" gradientUnits="userSpaceOnUse">
      <stop offset="0" stop-color="#d191c0"/>
      <stop offset="1" stop-color="#8172b4"/>
    </linearGradient>
    <clipPath id="clippath">
      <path class="cls-20" d="m641.38,59.29c-8.32-6.89-20.95-10.64-31.63-11.39-75.67-5.36-86.71,152.8-75.11,188.14,11.6,35.35,4.08,46.95-55.51,65.44-59.59,18.49-31,54.1-23.74,74.92,7.26,20.82,21.65,38.41-21.8,59.1-43.44,20.69-28.35,33.51-28.35,33.51,0,0,80.11,81.95,75.69,55.71-4.43-26.24,3.59-65.85,75.42-68.86,30.94-1.3,78.32-16.05,88.81-49.18,2.44-7.71,4.14-19.5,2.28-27.48-2.58-11.08-9.85-19.8-13.88-30.23-9.41-24.29,14.19-42.08,27.76-58.32,7.09-8.48,14.17-17.17,19.6-26.84,11.27-20.07,7.05-41.59-5.22-60.08-5.88-8.87-14.06-18.28-16.63-28.86-2.76-11.36-.35-26.89.3-38.58.51-9.17,1.39-18.3.87-27.5-.96-17.1-4.96-37.99-18.88-49.5Z"/>
    </clipPath>
    <linearGradient id="linear-gradient-2" x1="346.12" y1="473.37" x2="713.61" y2="473.37" gradientUnits="userSpaceOnUse">
      <stop offset="0" stop-color="#f58f86"/>
      <stop offset="1" stop-color="#ed72ac"/>
    </linearGradient>
    <clipPath id="clippath-1">
      <path class="cls-1" d="m707.79,292.24c-5.5-9.3-16.12-17.1-25.9-21.42-69.39-30.65-133.29,114.44-134.34,151.63-1.05,37.18-12.05,45.56-74.38,42.8-62.33-2.76-47.48,40.42-47.69,62.47-.21,22.05,7.37,43.47-40.51,48.24-47.88,4.77-38.01,21.94-38.01,21.94,0,0,47.66,104.22,52.37,78.04,4.71-26.19,25.66-60.75,94.27-39.28,29.55,9.25,79.13,11.39,100.21-16.23,4.91-6.43,10.5-16.94,11.45-25.09,1.32-11.29-2.57-21.97-2.84-33.14-.63-26.04,27.59-34.8,45.86-45.49,9.54-5.58,19.15-11.36,27.53-18.62,17.39-15.07,20.71-36.75,15.42-58.31-2.54-10.34-7.05-21.96-5.88-32.78,1.25-11.63,8.77-25.43,13.34-36.21,3.59-8.45,7.5-16.75,10.12-25.58,4.88-16.41,8.19-37.43-1.01-52.97Z"/>
    </clipPath>
    <linearGradient id="linear-gradient-3" x1="40.03" y1="386.73" x2="-68.44" y2="398.57" gradientTransform="translate(480.46) rotate(-180) scale(1 -1)" gradientUnits="userSpaceOnUse">
      <stop offset="0" stop-color="#454c8d"/>
      <stop offset="1" stop-color="#26274f"/>
    </linearGradient>
    <linearGradient id="linear-gradient-4" x1="135.61" y1="113.3" x2="-132.62" y2="1026.46" xlink:href="#linear-gradient-3"/>
    <linearGradient id="linear-gradient-5" x1="35.1" y1="90.81" x2="-280.14" y2="944.58" gradientTransform="translate(480.46) rotate(-180) scale(1 -1)" gradientUnits="userSpaceOnUse">
      <stop offset="0" stop-color="#ffc546"/>
      <stop offset="1" stop-color="#f36f56"/>
    </linearGradient>
    <linearGradient id="linear-gradient-6" x1="-586.67" y1="12780.74" x2="-802.3" y2="12984.06" gradientTransform="translate(-2895.47 15247.06) rotate(-180)" gradientUnits="userSpaceOnUse">
      <stop offset="0" stop-color="#321944"/>
      <stop offset="1" stop-color="#8a3a77"/>
    </linearGradient>
    <linearGradient id="linear-gradient-7" x1="66.08" y1="223.27" x2="238.86" y2="66.47" xlink:href="#linear-gradient-2"/>
    <linearGradient id="linear-gradient-8" x1="216.95" y1="395.07" x2="565.33" y2="395.07" gradientTransform="matrix(1, 0, 0, 1, 0, 0)" xlink:href="#linear-gradient-6"/>
    <linearGradient id="linear-gradient-9" x1="428.75" y1="1080.27" x2="387.21" y2="360.73" gradientUnits="userSpaceOnUse">
      <stop offset="0" stop-color="#f36f56"/>
      <stop offset="1" stop-color="#ffc546"/>
    </linearGradient>
    <linearGradient id="linear-gradient-10" x1="263.94" y1="357.18" x2="514.6" y2="357.18" xlink:href="#linear-gradient-9"/>
    <linearGradient id="linear-gradient-11" x1="255.08" y1="422.94" x2="505.54" y2="422.94" xlink:href="#linear-gradient-9"/>
    <linearGradient id="linear-gradient-12" x1="378.19" y1="447.22" x2="322.2" y2="802.28" xlink:href="#linear-gradient-9"/>
    <linearGradient id="linear-gradient-13" x1="396.61" y1="77.54" x2="408.57" y2="433.61" xlink:href="#linear-gradient-9"/>
  </defs>
  <g class="cls-9">
    <g id="Layer_1" data-name="Layer 1">
      <g>
        <path class="cls-17" d="m703.08,281.24c-7.86-96.91-11.79-145.36-30.08-176.71C620.62,14.77,468.35-6.57,372.17,1.61,243.42,12.57,96.12,86.58,31.29,229.49-27.6,359.29-.45,506.22,88.29,602.33c162.66,176.19,498.19,144.73,580.16,29.12,32.71-46.14,35.07-119.83,38.53-228.09,1.67-52.11-1.58-93.64-3.89-122.12Z"/>
        <g>
          <g>
            <path class="cls-20" d="m641.38,59.29c-8.32-6.89-20.95-10.64-31.63-11.39-75.67-5.36-86.71,152.8-75.11,188.14,11.6,35.35,4.08,46.95-55.51,65.44-59.59,18.49-31,54.1-23.74,74.92,7.26,20.82,21.65,38.41-21.8,59.1-43.44,20.69-28.35,33.51-28.35,33.51,0,0,80.11,81.95,75.69,55.71-4.43-26.24,3.59-65.85,75.42-68.86,30.94-1.3,78.32-16.05,88.81-49.18,2.44-7.71,4.14-19.5,2.28-27.48-2.58-11.08-9.85-19.8-13.88-30.23-9.41-24.29,14.19-42.08,27.76-58.32,7.09-8.48,14.17-17.17,19.6-26.84,11.27-20.07,7.05-41.59-5.22-60.08-5.88-8.87-14.06-18.28-16.63-28.86-2.76-11.36-.35-26.89.3-38.58.51-9.17,1.39-18.3.87-27.5-.96-17.1-4.96-37.99-18.88-49.5Z"/>
            <g class="cls-15">
              <g class="cls-7">
                <path class="cls-2" d="m398.96,515c-.52.19-1.11-.03-1.37-.54-.29-.55-.07-1.22.47-1.51.34-.18,34.06-17.92,71.69-47.13,34.67-26.92,79.83-69.37,98.12-118.72,15.27-41.22,29.2-109.35,38.21-186.94,8.08-69.57,9.36-121.03,5.92-130.58-.21-.58.09-1.22.67-1.43.58-.21,1.22.09,1.43.67,4.02,11.17,1.47,68.98-5.81,131.59-9.03,77.76-23.01,146.08-38.34,187.46-18.47,49.86-63.97,92.63-98.88,119.74-37.78,29.33-71.65,47.15-71.99,47.33-.05.02-.09.04-.14.06Z"/>
                <path class="cls-2" d="m605.96,173.64c-.58.21-1.17.05-1.38-.53-.28-.77-28.49-76.65-64.86-93.79-.56-.26-.79-.9-.52-1.45.26-.56.94-.78,1.49-.52,37.21,17.52,64.83,91.82,65.99,94.98.21.58-.13,1.1-.71,1.31,0,0,0,0,0,0Z"/>
                <path class="cls-2" d="m592.21,261.65c-.43.16-.93.03-1.24-.34-.39-.48-.32-1.18.15-1.57.21-.17,20.97-17.21,46.6-31.5,34.62-19.32,61.16-24.71,78.86-16.03.55.27.78.94.51,1.5-.27.55-.94.78-1.5.51-40.74-19.97-122.24,46.57-123.05,47.25-.1.08-.21.15-.33.19Z"/>
                <path class="cls-2" d="m501.79,441.53c-.11.04-.23.06-.36.07-.62,0-1.13-.48-1.14-1.1,0-.32-.58-32.89-7.4-67.19-6.25-31.45-19.15-70.85-45.13-79.93-.58-.2-.89-.84-.69-1.43.2-.58.84-.89,1.43-.69,21.66,7.57,37.34,35.04,46.59,81.64,6.85,34.5,7.43,67.24,7.43,67.56,0,.49-.3.91-.74,1.07Z"/>
                <path class="cls-2" d="m548.02,388.93c-.45.16-.98.02-1.28-.39-.37-.5-.26-1.2.23-1.56,3.6-2.66,88.59-65.15,121.73-59.18.61.11,1.01.69.9,1.3-.11.61-.69,1.01-1.3.9-32.2-5.8-119.13,58.13-120.01,58.78-.09.07-.19.12-.29.15Z"/>
              </g>
            </g>
          </g>
          <g>
            <path class="cls-1" d="m707.79,292.24c-5.5-9.3-16.12-17.1-25.9-21.42-69.39-30.65-133.29,114.44-134.34,151.63-1.05,37.18-12.05,45.56-74.38,42.8-62.33-2.76-47.48,40.42-47.69,62.47-.21,22.05,7.37,43.47-40.51,48.24-47.88,4.77-38.01,21.94-38.01,21.94,0,0,47.66,104.22,52.37,78.04,4.71-26.19,25.66-60.75,94.27-39.28,29.55,9.25,79.13,11.39,100.21-16.23,4.91-6.43,10.5-16.94,11.45-25.09,1.32-11.29-2.57-21.97-2.84-33.14-.63-26.04,27.59-34.8,45.86-45.49,9.54-5.58,19.15-11.36,27.53-18.62,17.39-15.07,20.71-36.75,15.42-58.31-2.54-10.34-7.05-21.96-5.88-32.78,1.25-11.63,8.77-25.43,13.34-36.21,3.59-8.45,7.5-16.75,10.12-25.58,4.88-16.41,8.19-37.43-1.01-52.97Z"/>
            <g class="cls-10">
              <g class="cls-7">
                <path class="cls-2" d="m325.47,639.04c-.55,0-1.03-.41-1.11-.97-.08-.61.34-1.18.96-1.26.38-.05,38.12-5.33,83.41-20.1,41.73-13.6,98.6-38.27,132.5-78.52,28.32-33.62,64.48-93.02,99.22-162.98,31.15-62.73,49.76-110.72,49.76-120.87,0-.62.5-1.12,1.12-1.12s1.12.5,1.12,1.12c0,11.87-21.96,65.4-49.99,121.87-34.81,70.11-71.08,129.68-99.51,163.43-34.25,40.66-91.54,65.52-133.56,79.22-45.48,14.82-83.38,20.12-83.76,20.17-.05,0-.1.01-.15.01Z"/>
                <path class="cls-2" d="m635.76,388.09c-.61,0-1.11-.47-1.12-1.08,0-.82-.87-81.83-29.3-110.26-.44-.44-.44-1.14,0-1.57.44-.44,1.15-.43,1.58,0,29.08,29.08,29.93,108.45,29.95,111.81,0,.62-.49,1.1-1.11,1.1h0Z"/>
                <path class="cls-2" d="m593.04,466.02c-.46,0-.89-.28-1.05-.74-.21-.58.09-1.22.68-1.43.25-.09,25.56-9.09,54.51-13.88,39.12-6.46,65.91-2.56,79.63,11.61.43.44.42,1.15-.02,1.58-.44.43-1.15.42-1.58-.02-31.58-32.58-130.78,2.46-131.78,2.82-.12.04-.25.07-.38.07Z"/>
                <path class="cls-2" d="m447.09,604.7c-.12,0-.24-.02-.36-.06-.58-.2-.9-.84-.7-1.42.1-.31,10.58-31.14,15.78-65.73,4.76-31.71,5.95-73.16-15.42-90.49-.48-.39-.55-1.09-.16-1.57.39-.48,1.09-.55,1.57-.16,17.83,14.45,23.28,45.61,16.22,92.59-5.23,34.78-15.76,65.78-15.87,66.09-.16.46-.59.76-1.06.76Z"/>
                <path class="cls-2" d="m508.39,570.84c-.48,0-.93-.31-1.07-.8-.18-.59.16-1.22.75-1.39,4.29-1.29,105.41-31.33,134.58-14.5.54.31.72.99.41,1.53-.31.54-.99.72-1.53.41-28.34-16.35-131.78,14.39-132.82,14.7-.11.03-.22.05-.32.05Z"/>
              </g>
            </g>
          </g>
        </g>
        <g>
          <path class="cls-13" d="m475.19,30.86l-.8,5.72c-2.65.12-5.26.46-7.8,1.03l-2.16-5.34c-.59-1.46-2.26-2.15-3.72-1.54l-9.17,3.78c-1.47.61-2.18,2.28-1.6,3.74l2.17,5.41c-2.22,1.42-4.32,3.02-6.28,4.79l-4.61-3.58c-1.24-.96-3.05-.73-4.03.53l-6.16,7.89c-.99,1.26-.78,3.07.47,4.04l4.63,3.6c-1.23,2.31-2.27,4.76-3.1,7.31l-5.87-.77c-1.58-.21-3.04.91-3.28,2.5l-1.48,9.95c-.24,1.59.85,3.05,2.43,3.26l5.89.77c.07,2.69.36,5.33.89,7.9l-5.52,2.3c-1.49.62-2.22,2.33-1.63,3.83l3.68,9.35c.59,1.5,2.28,2.21,3.77,1.58l5.53-2.31c1.39,2.26,2.98,4.39,4.73,6.38l-3.68,4.78c-1,1.29-.78,3.15.48,4.14l7.9,6.19c1.26.99,3.1.74,4.09-.56l3.64-4.75c2.32,1.24,4.78,2.27,7.35,3.09l-.83,5.93c-.23,1.62.88,3.11,2.48,3.32l9.97,1.31c1.59.21,3.07-.94,3.29-2.56l.8-5.89c2.71-.12,5.37-.47,7.97-1.05l2.19,5.44c.61,1.51,2.31,2.22,3.79,1.59l9.3-3.94c1.49-.63,2.19-2.36,1.58-3.87l-2.19-5.4c2.27-1.46,4.41-3.13,6.39-4.97l4.54,3.53c1.27.99,3.09.74,4.07-.55l6.09-8.07c.97-1.29.73-3.13-.54-4.11l-4.5-3.49c1.23-2.38,2.25-4.89,3.06-7.51l5.63.74c1.58.21,3.03-.92,3.23-2.52l1.28-9.97c.2-1.59-.91-3.05-2.48-3.25l-5.61-.74c-.12-2.72-.46-5.39-1.03-7.98l5.21-2.18c1.46-.61,2.16-2.3,1.55-3.78l-3.8-9.19c-.61-1.47-2.28-2.16-3.74-1.55l-5.24,2.18c-1.43-2.24-3.04-4.35-4.83-6.3l3.46-4.52c.96-1.26.73-3.06-.52-4.02l-7.82-6.01c-1.25-.96-3.04-.72-4.01.53l-3.48,4.52c-2.31-1.2-4.75-2.19-7.29-2.98l.78-5.68c.21-1.56-.88-2.99-2.44-3.2l-9.77-1.28c-1.56-.2-3.01.89-3.22,2.46Zm-34.45,46.35c2.82-19.65,20.86-33.43,40.3-30.88,19.44,2.55,33.1,20.48,30.48,40.16-2.63,19.8-20.7,33.85-40.36,31.27-19.65-2.58-33.27-20.78-30.43-40.55Z"/>
          <path class="cls-13" d="m325.36,27.76l-1.24,8.85c-4.1.19-8.14.72-12.06,1.6l-3.34-8.25c-.91-2.25-3.49-3.32-5.75-2.39l-14.19,5.84c-2.27.94-3.38,3.52-2.47,5.78l3.36,8.36c-3.44,2.19-6.69,4.67-9.71,7.41l-7.13-5.53c-1.92-1.49-4.71-1.12-6.24.82l-9.53,12.19c-1.53,1.95-1.2,4.75.72,6.25l7.15,5.56c-1.9,3.58-3.51,7.36-4.8,11.3l-9.08-1.19c-2.44-.32-4.71,1.41-5.07,3.86l-2.28,15.38c-.37,2.46,1.32,4.72,3.76,5.04l9.1,1.19c.11,4.15.56,8.24,1.37,12.21l-8.54,3.56c-2.3.96-3.44,3.61-2.53,5.92l5.69,14.46c.91,2.32,3.52,3.41,5.83,2.45l8.55-3.58c2.15,3.5,4.6,6.79,7.32,9.86l-5.69,7.39c-1.54,2-1.21,4.87.74,6.4l12.21,9.58c1.95,1.53,4.79,1.15,6.33-.86l5.63-7.35c3.59,1.91,7.4,3.51,11.36,4.78l-1.28,9.17c-.35,2.51,1.36,4.81,3.83,5.13l15.41,2.02c2.46.32,4.74-1.45,5.08-3.96l1.24-9.1c4.19-.18,8.31-.72,12.32-1.62l3.38,8.41c.94,2.33,3.57,3.44,5.87,2.46l14.38-6.09c2.3-.97,3.39-3.65,2.45-5.98l-3.38-8.35c3.51-2.26,6.81-4.84,9.88-7.68l7.03,5.46c1.96,1.53,4.78,1.14,6.29-.86l9.41-12.48c1.5-1.99,1.13-4.84-.83-6.36l-6.96-5.4c1.9-3.68,3.47-7.57,4.72-11.61l8.71,1.14c2.44.32,4.68-1.42,5-3.89l1.98-15.42c.32-2.46-1.4-4.71-3.84-5.03l-8.68-1.14c-.18-4.2-.71-8.33-1.6-12.33l8.05-3.37c2.26-.95,3.33-3.56,2.39-5.84l-5.88-14.21c-.94-2.27-3.53-3.34-5.79-2.4l-8.1,3.38c-2.2-3.46-4.7-6.73-7.47-9.74l5.35-6.98c1.49-1.94,1.12-4.72-.81-6.21l-12.09-9.29c-1.93-1.48-4.71-1.12-6.2.82l-5.38,6.99c-3.57-1.85-7.34-3.39-11.27-4.61l1.2-8.78c.33-2.42-1.36-4.63-3.78-4.95l-15.11-1.98c-2.42-.32-4.65,1.38-4.99,3.8Zm-53.27,71.67c4.37-30.38,32.25-51.69,62.31-47.74,30.06,3.94,51.17,31.67,47.13,62.1-4.06,30.61-32.01,52.33-62.4,48.35-30.39-3.99-51.44-32.13-47.05-62.7Z"/>
        </g>
        <g>
          <path class="cls-19" d="m310.9,113.43l-66.08,549.28c-.99,8.24,4.69,15.62,12.64,16.41l275.25,30.22c16.86,1.05,26.09-7.57,27.13-16.32l69.38-583.98c1.03-8.71-7.24-16.6-24.17-16.6l-277.76,5.85c-8.04.13-15.41,6.95-16.39,15.14Z"/>
          <path class="cls-21" d="m298.51,112.49l-66.45,552.03c-1,8.28,4.7,15.7,12.68,16.49l285.36,28.41c8.95.89,17.15-5.58,18.19-14.38l69.77-587c1.04-8.75-5.53-15.79-14.58-15.64l-288.52,4.87c-8.07.14-15.47,6.98-16.46,15.22Z"/>
          <path class="cls-13" d="m303.93,142.94l-61.59,511.84c-.93,7.73,4.4,14.65,11.87,15.38l268.37,26.09c8.32.81,15.94-5.23,16.91-13.43l64.48-542.25c.97-8.15-5.13-14.75-13.53-14.66l-271.12,2.89c-7.55.08-14.46,6.44-15.39,14.14Z"/>
          <path class="cls-14" d="m447.84,112.11c-.35,2.94,1.76,5.29,4.71,5.25,2.96-.04,5.65-2.45,6-5.4.35-2.94-1.76-5.3-4.72-5.25-2.96.04-5.64,2.46-5.99,5.4Z"/>
          <g class="cls-5">
            <path class="cls-2" d="m350.33,486.52c54.94-101.58,137.02-131.98,161.73-236.67,13.36-56.59,4.26-110.75-11.07-155.71l102.51-1.73c9.04-.15,15.62,6.88,14.57,15.64l-69.77,587c-1.05,8.8-9.25,15.27-18.19,14.38l-224.32-22.33c-1.66-91.02,20.05-155.29,44.54-200.57Z"/>
          </g>
        </g>
        <g>
          <path class="cls-8" d="m27.59,170.74c0-53.97,47.08-97.72,103.58-97.72,54.83,0,98.1,41.45,98.1,92.57s-43.27,94.77-98.1,97.58c-56.5,2.89-103.58-38.46-103.58-92.43Z"/>
          <path class="cls-16" d="m33.68,166.44c0-53.97,45.72-97.72,100.59-97.72,53.24,0,95.27,41.45,95.27,92.57s-42.02,94.77-95.27,97.58c-54.87,2.89-100.59-38.46-100.59-92.43Z"/>
          <g class="cls-6">
            <path class="cls-2" d="m49.34,166.03c0-45.35,38.41-82.1,84.51-82.1,44.73,0,80.04,34.83,80.04,77.77s-35.3,79.62-80.04,81.98c-46.1,2.43-84.51-32.31-84.51-77.66Z"/>
          </g>
          <path class="cls-3" d="m130.67,90.9c44.73,0,80.04,34.83,80.04,77.77,0,10.21-2.02,20.06-5.66,29.19,5.64-10.99,8.83-23.29,8.83-36.16,0-42.95-35.3-77.77-80.04-77.78-35.55,0-66.51,21.87-78.83,52.67,13.94-27.08,42.85-45.71,75.65-45.71Z"/>
          <g>
            <path class="cls-2" d="m95.63,154.93v39.58c0,11.44,9.63,20.47,21.47,20.16l29.36-.77c11.7-.31,21.15-9.73,21.15-21.05v-39.16l-71.97,1.24Zm27.04,40.92l5.46-16.53c-2.34-1.21-3.92-3.58-3.92-6.35,0-4.06,3.41-7.42,7.6-7.5,4.19-.08,7.59,3.14,7.59,7.2,0,2.76-1.58,5.2-3.91,6.5l5.44,16.26-18.26.43Z"/>
            <path class="cls-2" d="m159.25,150.26c-3.11.05-5.64-2.36-5.64-5.38,0-11.63-9.77-20.97-21.81-20.82-12.09.16-21.95,9.81-21.95,21.52,0,3.05-2.56,5.56-5.72,5.61-3.17.05-5.73-2.38-5.73-5.43,0-17.82,15.03-32.48,33.41-32.69,18.28-.21,33.08,13.98,33.08,31.63,0,3.02-2.52,5.51-5.63,5.56Z"/>
          </g>
        </g>
        <g>
          <path class="cls-22" d="m552.71,175.88l1.34,7.24h0s-27.61.07-27.61.07l-239.58.57c-6.16.01-11.83,5.11-12.68,11.38l-57.19,382.23c-.85,6.33,9,15.98,15.12,16.46l106.29,8.17v-.13l158.99,12.2h0l.39.16c6.79.52,13.02-4.4,13.9-11.08,0,0,0,.03,0,.03l53.56-408.1c.87-6.62-5.71-19.2-12.54-19.18Z"/>
          <g>
            <path class="cls-18" d="m506.27,595.18c-.88,6.68-7.1,11.68-13.89,11.16l-265.95-20.42c-6.12-.47-10.39-5.98-9.53-12.31l51.99-386.3c.84-6.27,6.51-11.36,12.67-11.38l267.45-.74c6.82-.02,11.67,5.33,10.8,11.95l-53.53,408.03Z"/>
            <path class="cls-2" d="m509.8,382.74c-.44,3.31-3.53,5.78-6.91,5.66l-234.06-8.54c-3.09-.11-5.26-2.66-4.84-5.82l4.6-34.11c.42-3.16,3.24-5.3,6.34-5.21l234.27,6.51c3.38.09,5.78,2.48,5.34,5.79l-4.74,35.73Z"/>
            <path class="cls-2" d="m500.74,452.04c-.44,3.32-3.53,6.15-6.91,5.98l-233.89-11.55c-3.09-.15-5.24-3.11-4.81-6.27l4.64-34.77c.42-3.16,3.27-5.87,6.36-5.75l234.03,9.44c3.38.14,5.77,3.19,5.33,6.51l-4.75,36.42Z"/>
            <path class="cls-11" d="m514.57,346.87c-.55-.18-1.15-.28-1.79-.29l-234.27-6.5c-3.09-.09-5.91,2.05-6.33,5.21l-4.61,34.11c0,.09-.02.17-.03.26-2.38-.67-3.9-2.92-3.55-5.62l4.61-34.11c.42-3.15,3.24-5.3,6.33-5.21l234.27,6.5c3.32.1,5.71,2.41,5.36,5.65Z"/>
            <path class="cls-12" d="m505.54,414.86c-.56-.22-1.17-.36-1.81-.38l-234.02-9.44c-3.09-.12-5.94,2.59-6.36,5.75l-4.64,34.77c-.03.22-.04.44-.04.66-2.38-.77-3.89-3.32-3.53-6.02l4.64-34.77c.42-3.16,3.27-5.88,6.36-5.75l234.02,9.44c3.13.13,5.39,2.74,5.39,5.74Z"/>
            <path class="cls-23" d="m438.54,508.21c.69-5.23-3.01-10.05-8.27-10.35l-121.07-6.95c-5.01-.29-9.65,3.93-10.33,9.03l-5,37.66c-.68,5.1,2.8,9.98,7.81,10.33l121.01,8.28c5.26.36,10.1-4.08,10.79-9.32l5.06-38.67Z"/>
            <g>
              <path class="cls-24" d="m447.68,254.49c-1.59,12.04-7.78,22.91-16.57,30.9-9.48,8.62-21.96,13.86-34.94,13.61-12.92-.25-23.79-5.89-30.77-14.7-6.44-8.12-9.59-18.94-8.01-30.78,3.29-24.62,25.91-44.53,50.74-44.47,25.06.06,42.87,20.4,39.55,45.45Z"/>
              <g>
                <path class="cls-2" d="m423.54,240.8c-1.43,10.79-11.39,19.43-22.2,19.3-10.77-.13-18.3-8.91-16.88-19.62,1.43-10.71,11.28-19.34,22.05-19.29,10.81.05,18.45,8.83,17.02,19.61Z"/>
                <path class="cls-2" d="m431.11,285.38c-9.48,8.62-21.96,13.86-34.94,13.61-12.92-.25-23.79-5.89-30.77-14.7,7.99-11.13,21.17-18.53,35.16-18.35,14.07.18,25.41,7.98,30.54,19.44Z"/>
              </g>
            </g>
            <path class="cls-4" d="m559.8,187.15l-53.53,408.03c-.88,6.68-7.5,11.65-14.29,11.13l-159.73-12.27c-7.59-7.77-13.84-17.09-18.3-28.28-2.19-5.49-3.79-11.41-4.86-17.63-2.97-17.23-1.82-36.81,2.51-56.04,3.33-14.8,8.54-29.41,15.21-42.59,5.34-10.54,11.62-20.18,18.63-28.27,5.05-5.83,10.51-11.49,16.27-17.05,6.94-6.7,14.32-13.25,21.94-19.73,17.74-15.11,36.74-29.89,54.32-45.5,40.58-36,73.5-76.22,65.58-133.62-.25-1.81-2.73-15.65-5.89-30l50.94-.14c6.82-.02,12.06,5.33,11.19,11.95Z"/>
          </g>
        </g>
      </g>
    </g>
  </g>
</svg>